<?xml version="1.0" encoding="UTF-8" standalone="no"?>
<!DOCTYPE svg PUBLIC "-//W3C//DTD SVG 1.1//EN"
 "http://www.w3.org/Graphics/SVG/1.1/DTD/svg11.dtd">
<!-- Generated by graphviz version 2.47.3 (20210619.1520)
 -->
<!-- Title: dependencies Pages: 1 -->
<svg width="392pt" height="247pt"
 viewBox="0.00 0.00 392.00 246.80" xmlns="http://www.w3.org/2000/svg" xmlns:xlink="http://www.w3.org/1999/xlink">
<g id="graph0" class="graph" transform="scale(1 1) rotate(0) translate(4 242.8)">
<title>dependencies</title>
<polygon fill="white" stroke="transparent" points="-4,4 -4,-242.8 388,-242.8 388,4 -4,4"/>
<text text-anchor="middle" x="192" y="-8.2" font-family="sans-serif" font-size="14.00">dependencies</text>
<g id="clust1" class="cluster">
<title>cluster_BModule</title>
<polygon fill="none" stroke="black" stroke-dasharray="1,5" points="8,-32.8 8,-230.8 376,-230.8 376,-32.8 8,-32.8"/>
</g>
<g id="clust2" class="cluster">
<title>cluster_BModule_declarations</title>
<polygon fill="none" stroke="black" points="138,-40.8 138,-92.8 368,-92.8 368,-40.8 138,-40.8"/>
</g>
<g id="clust6" class="cluster">
<title>cluster_BModule_exports</title>
<polygon fill="none" stroke="black" points="136,-170.8 136,-222.8 254,-222.8 254,-170.8 136,-170.8"/>
</g>
<g id="clust5" class="cluster">
<title>cluster_BModule_imports</title>
<polygon fill="none" stroke="black" points="16,-40.8 16,-92.8 130,-92.8 130,-40.8 16,-40.8"/>
</g>
<!-- B1Component -->
<g id="node1" class="node">
<title>B1Component</title>
<polygon fill="#ffffb3" stroke="black" points="359.67,-84.8 262.33,-84.8 262.33,-48.8 359.67,-48.8 359.67,-84.8"/>
<text text-anchor="middle" x="311" y="-62.6" font-family="Times,serif" font-size="14.00">B1Component</text>
</g>
<!-- BModule -->
<g id="node3" class="node">
<title>BModule</title>
<polygon fill="#8dd3c7" stroke="black" points="229.39,-149.8 226.39,-153.8 205.39,-153.8 202.39,-149.8 160.61,-149.8 160.61,-113.8 229.39,-113.8 229.39,-149.8"/>
<text text-anchor="middle" x="195" y="-127.6" font-family="Times,serif" font-size="14.00">BModule</text>
</g>
<!-- B1Component&#45;&gt;BModule -->
<g id="edge1" class="edge">
<title>B1Component&#45;&gt;BModule</title>
<path fill="none" stroke="black" d="M311,-84.91C311,-104.14 311,-131.8 311,-131.8 311,-131.8 239.49,-131.8 239.49,-131.8"/>
<polygon fill="black" stroke="black" points="239.49,-128.3 229.49,-131.8 239.49,-135.3 239.49,-128.3"/>
</g>
<!-- B2Component -->
<g id="node2" class="node">
<title>B2Component</title>
<polygon fill="#ffffb3" stroke="black" points="243.67,-84.8 146.33,-84.8 146.33,-48.8 243.67,-48.8 243.67,-84.8"/>
<text text-anchor="middle" x="195" y="-62.6" font-family="Times,serif" font-size="14.00">B2Component</text>
</g>
<!-- B2Component&#45;&gt;BModule -->
<g id="edge2" class="edge">
<title>B2Component&#45;&gt;BModule</title>
<path fill="none" stroke="black" d="M195,-84.91C195,-84.91 195,-103.79 195,-103.79"/>
<polygon fill="black" stroke="black" points="191.5,-103.79 195,-113.79 198.5,-103.79 191.5,-103.79"/>
</g>
<!-- B1Component  -->
<g id="node5" class="node">
<title>B1Component </title>
<polygon fill="#fb8072" stroke="black" points="245.67,-214.8 144.33,-214.8 144.33,-178.8 245.67,-178.8 245.67,-214.8"/>
<text text-anchor="middle" x="195" y="-192.6" font-family="Times,serif" font-size="14.00">B1Component </text>
</g>
<!-- BModule&#45;&gt;B1Component  -->
<g id="edge4" class="edge">
<title>BModule&#45;&gt;B1Component </title>
<path fill="none" stroke="black" stroke-dasharray="5,2" d="M195,-149.91C195,-149.91 195,-168.79 195,-168.79"/>
<polygon fill="black" stroke="black" points="191.5,-168.79 195,-178.79 198.5,-168.79 191.5,-168.79"/>
</g>
<!-- SharedModule -->
<g id="node4" class="node">
<title>SharedModule</title>
<polygon fill="#8dd3c7" stroke="black" points="122.42,-84.8 119.42,-88.8 98.42,-88.8 95.42,-84.8 23.58,-84.8 23.58,-48.8 122.42,-48.8 122.42,-84.8"/>
<text text-anchor="middle" x="73" y="-62.6" font-family="Times,serif" font-size="14.00">SharedModule</text>
</g>
<!-- SharedModule&#45;&gt;BModule -->
<g id="edge3" class="edge">
<title>SharedModule&#45;&gt;BModule</title>
<path fill="none" stroke="black" d="M73,-84.91C73,-104.14 73,-131.8 73,-131.8 73,-131.8 150.37,-131.8 150.37,-131.8"/>
<polygon fill="black" stroke="black" points="150.37,-135.3 160.37,-131.8 150.37,-128.3 150.37,-135.3"/>
</g>
</g>
</svg>
