<?xml version="1.0" encoding="UTF-8" standalone="no"?>
<!DOCTYPE svg PUBLIC "-//W3C//DTD SVG 1.1//EN"
 "http://www.w3.org/Graphics/SVG/1.1/DTD/svg11.dtd">
<!-- Generated by graphviz version 2.47.3 (20210619.1520)
 -->
<!-- Title: dependencies Pages: 1 -->
<svg width="1049pt" height="247pt"
 viewBox="0.00 0.00 1049.00 246.80" xmlns="http://www.w3.org/2000/svg" xmlns:xlink="http://www.w3.org/1999/xlink">
<g id="graph0" class="graph" transform="scale(1 1) rotate(0) translate(4 242.8)">
<title>dependencies</title>
<polygon fill="white" stroke="transparent" points="-4,4 -4,-242.8 1045,-242.8 1045,4 -4,4"/>
<text text-anchor="middle" x="520.5" y="-8.2" font-family="sans-serif" font-size="14.00">dependencies</text>
<g id="clust1" class="cluster">
<title>cluster_AppModule</title>
<polygon fill="none" stroke="black" stroke-dasharray="1,5" points="8,-32.8 8,-230.8 1033,-230.8 1033,-32.8 8,-32.8"/>
</g>
<g id="clust2" class="cluster">
<title>cluster_AppModule_declarations</title>
<polygon fill="none" stroke="black" points="214,-40.8 214,-92.8 1025,-92.8 1025,-40.8 214,-40.8"/>
</g>
<g id="clust11" class="cluster">
<title>cluster_AppModule_bootstrap</title>
<polygon fill="none" stroke="black" points="478,-170.8 478,-222.8 602,-222.8 602,-170.8 478,-170.8"/>
</g>
<g id="clust12" class="cluster">
<title>cluster_AppModule_providers</title>
<polygon fill="none" stroke="black" points="16,-40.8 16,-92.8 206,-92.8 206,-40.8 16,-40.8"/>
</g>
<!-- AppComponent -->
<g id="node1" class="node">
<title>AppComponent</title>
<polygon fill="#ffffb3" stroke="black" points="1016.94,-84.8 911.06,-84.8 911.06,-48.8 1016.94,-48.8 1016.94,-84.8"/>
<text text-anchor="middle" x="964" y="-62.6" font-family="Times,serif" font-size="14.00">AppComponent</text>
</g>
<!-- AppModule -->
<g id="node7" class="node">
<title>AppModule</title>
<polygon fill="#8dd3c7" stroke="black" points="581.66,-149.8 578.66,-153.8 557.66,-153.8 554.66,-149.8 498.34,-149.8 498.34,-113.8 581.66,-113.8 581.66,-149.8"/>
<text text-anchor="middle" x="540" y="-127.6" font-family="Times,serif" font-size="14.00">AppModule</text>
</g>
<!-- AppComponent&#45;&gt;AppModule -->
<g id="edge1" class="edge">
<title>AppComponent&#45;&gt;AppModule</title>
<path fill="none" stroke="black" d="M964,-85.09C964,-107.01 964,-140.8 964,-140.8 964,-140.8 591.82,-140.8 591.82,-140.8"/>
<polygon fill="black" stroke="black" points="591.82,-137.3 581.82,-140.8 591.82,-144.3 591.82,-137.3"/>
</g>
<!-- BreweryComponent -->
<g id="node2" class="node">
<title>BreweryComponent</title>
<polygon fill="#ffffb3" stroke="black" points="893.53,-84.8 764.47,-84.8 764.47,-48.8 893.53,-48.8 893.53,-84.8"/>
<text text-anchor="middle" x="829" y="-62.6" font-family="Times,serif" font-size="14.00">BreweryComponent</text>
</g>
<!-- BreweryComponent&#45;&gt;AppModule -->
<g id="edge2" class="edge">
<title>BreweryComponent&#45;&gt;AppModule</title>
<path fill="none" stroke="black" d="M829,-84.91C829,-104.14 829,-131.8 829,-131.8 829,-131.8 591.71,-131.8 591.71,-131.8"/>
<polygon fill="black" stroke="black" points="591.71,-128.3 581.71,-131.8 591.71,-135.3 591.71,-128.3"/>
</g>
<!-- ChildrenComponent -->
<g id="node3" class="node">
<title>ChildrenComponent</title>
<polygon fill="#ffffb3" stroke="black" points="746.33,-84.8 615.67,-84.8 615.67,-48.8 746.33,-48.8 746.33,-84.8"/>
<text text-anchor="middle" x="681" y="-62.6" font-family="Times,serif" font-size="14.00">ChildrenComponent</text>
</g>
<!-- ChildrenComponent&#45;&gt;AppModule -->
<g id="edge3" class="edge">
<title>ChildrenComponent&#45;&gt;AppModule</title>
<path fill="none" stroke="black" d="M681,-84.83C681,-101.2 681,-122.8 681,-122.8 681,-122.8 591.92,-122.8 591.92,-122.8"/>
<polygon fill="black" stroke="black" points="591.92,-119.3 581.92,-122.8 591.92,-126.3 591.92,-119.3"/>
</g>
<!-- HomeComponent -->
<g id="node4" class="node">
<title>HomeComponent</title>
<polygon fill="#ffffb3" stroke="black" points="597.55,-84.8 482.45,-84.8 482.45,-48.8 597.55,-48.8 597.55,-84.8"/>
<text text-anchor="middle" x="540" y="-62.6" font-family="Times,serif" font-size="14.00">HomeComponent</text>
</g>
<!-- HomeComponent&#45;&gt;AppModule -->
<g id="edge4" class="edge">
<title>HomeComponent&#45;&gt;AppModule</title>
<path fill="none" stroke="black" d="M540,-84.91C540,-84.91 540,-103.79 540,-103.79"/>
<polygon fill="black" stroke="black" points="536.5,-103.79 540,-113.79 543.5,-103.79 536.5,-103.79"/>
</g>
<!-- ParentComponent -->
<g id="node5" class="node">
<title>ParentComponent</title>
<polygon fill="#ffffb3" stroke="black" points="464.6,-84.8 347.4,-84.8 347.4,-48.8 464.6,-48.8 464.6,-84.8"/>
<text text-anchor="middle" x="406" y="-62.6" font-family="Times,serif" font-size="14.00">ParentComponent</text>
</g>
<!-- ParentComponent&#45;&gt;AppModule -->
<g id="edge5" class="edge">
<title>ParentComponent&#45;&gt;AppModule</title>
<path fill="none" stroke="black" d="M406,-84.83C406,-101.2 406,-122.8 406,-122.8 406,-122.8 488.34,-122.8 488.34,-122.8"/>
<polygon fill="black" stroke="black" points="488.34,-126.3 498.34,-122.8 488.34,-119.3 488.34,-126.3"/>
</g>
<!-- UserComponent -->
<g id="node6" class="node">
<title>UserComponent</title>
<polygon fill="#ffffb3" stroke="black" points="329.76,-84.8 222.24,-84.8 222.24,-48.8 329.76,-48.8 329.76,-84.8"/>
<text text-anchor="middle" x="276" y="-62.6" font-family="Times,serif" font-size="14.00">UserComponent</text>
</g>
<!-- UserComponent&#45;&gt;AppModule -->
<g id="edge6" class="edge">
<title>UserComponent&#45;&gt;AppModule</title>
<path fill="none" stroke="black" d="M276,-84.91C276,-104.14 276,-131.8 276,-131.8 276,-131.8 488.17,-131.8 488.17,-131.8"/>
<polygon fill="black" stroke="black" points="488.17,-135.3 498.17,-131.8 488.17,-128.3 488.17,-135.3"/>
</g>
<!-- AppComponent  -->
<g id="node8" class="node">
<title>AppComponent </title>
<polygon fill="#80b1d3" stroke="black" points="594.44,-214.8 485.56,-214.8 485.56,-178.8 594.44,-178.8 594.44,-214.8"/>
<text text-anchor="middle" x="540" y="-192.6" font-family="Times,serif" font-size="14.00">AppComponent </text>
</g>
<!-- AppModule&#45;&gt;AppComponent  -->
<g id="edge7" class="edge">
<title>AppModule&#45;&gt;AppComponent </title>
<path fill="none" stroke="black" stroke-dasharray="1,5" d="M540,-149.91C540,-149.91 540,-168.79 540,-168.79"/>
<polygon fill="black" stroke="black" points="536.5,-168.79 540,-178.79 543.5,-168.79 536.5,-168.79"/>
</g>
<!-- BreweryInterceptor -->
<g id="node9" class="node">
<title>BreweryInterceptor</title>
<ellipse fill="#fdb462" stroke="black" cx="111" cy="-66.8" rx="86.77" ry="18"/>
<text text-anchor="middle" x="111" y="-62.6" font-family="Times,serif" font-size="14.00">BreweryInterceptor</text>
</g>
<!-- BreweryInterceptor&#45;&gt;AppModule -->
<g id="edge8" class="edge">
<title>BreweryInterceptor&#45;&gt;AppModule</title>
<path fill="none" stroke="black" d="M111,-85.09C111,-107.01 111,-140.8 111,-140.8 111,-140.8 488.08,-140.8 488.08,-140.8"/>
<polygon fill="black" stroke="black" points="488.08,-144.3 498.08,-140.8 488.08,-137.3 488.08,-144.3"/>
</g>
</g>
</svg>
