<?xml version="1.0" encoding="UTF-8" standalone="no"?>
<!DOCTYPE svg PUBLIC "-//W3C//DTD SVG 1.1//EN"
 "http://www.w3.org/Graphics/SVG/1.1/DTD/svg11.dtd">
<!-- Generated by graphviz version 2.47.3 (20210619.1520)
 -->
<!-- Title: dependencies Pages: 1 -->
<svg width="2266pt" height="253pt"
 viewBox="0.00 0.00 2266.00 252.80" xmlns="http://www.w3.org/2000/svg" xmlns:xlink="http://www.w3.org/1999/xlink">
<g id="graph0" class="graph" transform="scale(1 1) rotate(0) translate(4 248.8)">
<title>dependencies</title>
<polygon fill="white" stroke="transparent" points="-4,4 -4,-248.8 2262,-248.8 2262,4 -4,4"/>
<text text-anchor="middle" x="1129" y="-8.2" font-family="sans-serif" font-size="14.00">dependencies</text>
<g id="clust1" class="cluster">
<title>cluster_AModule</title>
<polygon fill="none" stroke="black" stroke-dasharray="1,5" points="8,-32.8 8,-236.8 376,-236.8 376,-32.8 8,-32.8"/>
</g>
<g id="clust2" class="cluster">
<title>cluster_AModule_declarations</title>
<polygon fill="none" stroke="black" points="16,-40.8 16,-92.8 246,-92.8 246,-40.8 16,-40.8"/>
</g>
<g id="clust5" class="cluster">
<title>cluster_AModule_imports</title>
<polygon fill="none" stroke="black" points="254,-40.8 254,-92.8 368,-92.8 368,-40.8 254,-40.8"/>
</g>
<g id="clust6" class="cluster">
<title>cluster_AModule_exports</title>
<polygon fill="none" stroke="black" points="130,-176.8 130,-228.8 248,-228.8 248,-176.8 130,-176.8"/>
</g>
<g id="clust9" class="cluster">
<title>cluster_AppModule</title>
<polygon fill="none" stroke="black" stroke-dasharray="1,5" points="1225,-32.8 1225,-236.8 2250,-236.8 2250,-32.8 1225,-32.8"/>
</g>
<g id="clust10" class="cluster">
<title>cluster_AppModule_declarations</title>
<polygon fill="none" stroke="black" points="1431,-40.8 1431,-92.8 2242,-92.8 2242,-40.8 1431,-40.8"/>
</g>
<g id="clust19" class="cluster">
<title>cluster_AppModule_bootstrap</title>
<polygon fill="none" stroke="black" points="1695,-176.8 1695,-228.8 1819,-228.8 1819,-176.8 1695,-176.8"/>
</g>
<g id="clust20" class="cluster">
<title>cluster_AppModule_providers</title>
<polygon fill="none" stroke="black" points="1233,-40.8 1233,-92.8 1423,-92.8 1423,-40.8 1233,-40.8"/>
</g>
<g id="clust21" class="cluster">
<title>cluster_BModule</title>
<polygon fill="none" stroke="black" stroke-dasharray="1,5" points="971,-32.8 971,-236.8 1217,-236.8 1217,-32.8 971,-32.8"/>
</g>
<g id="clust22" class="cluster">
<title>cluster_BModule_declarations</title>
<polygon fill="none" stroke="black" points="979,-40.8 979,-92.8 1209,-92.8 1209,-40.8 979,-40.8"/>
</g>
<g id="clust26" class="cluster">
<title>cluster_BModule_exports</title>
<polygon fill="none" stroke="black" points="979,-176.8 979,-228.8 1097,-228.8 1097,-176.8 979,-176.8"/>
</g>
<g id="clust29" class="cluster">
<title>cluster_SharedModule</title>
<polygon fill="none" stroke="black" stroke-dasharray="1,5" points="384,-100.8 384,-168.8 963,-168.8 963,-100.8 384,-100.8"/>
</g>
<g id="clust30" class="cluster">
<title>cluster_SharedModule_declarations</title>
<polygon fill="none" stroke="black" points="681,-108.8 681,-160.8 955,-160.8 955,-108.8 681,-108.8"/>
</g>
<g id="clust34" class="cluster">
<title>cluster_SharedModule_exports</title>
<polygon fill="none" stroke="black" points="392,-108.8 392,-160.8 673,-160.8 673,-108.8 392,-108.8"/>
</g>
<!-- A1Component -->
<g id="node1" class="node">
<title>A1Component</title>
<polygon fill="#ffffb3" stroke="black" points="238.44,-84.8 139.56,-84.8 139.56,-48.8 238.44,-48.8 238.44,-84.8"/>
<text text-anchor="middle" x="189" y="-62.6" font-family="Times,serif" font-size="14.00">A1Component</text>
</g>
<!-- AModule -->
<g id="node3" class="node">
<title>AModule</title>
<polygon fill="#8dd3c7" stroke="black" points="223.66,-152.8 220.66,-156.8 199.66,-156.8 196.66,-152.8 154.34,-152.8 154.34,-116.8 223.66,-116.8 223.66,-152.8"/>
<text text-anchor="middle" x="189" y="-130.6" font-family="Times,serif" font-size="14.00">AModule</text>
</g>
<!-- A1Component&#45;&gt;AModule -->
<g id="edge1" class="edge">
<title>A1Component&#45;&gt;AModule</title>
<path fill="none" stroke="black" d="M189,-85.02C189,-85.02 189,-106.53 189,-106.53"/>
<polygon fill="black" stroke="black" points="185.5,-106.53 189,-116.53 192.5,-106.53 185.5,-106.53"/>
</g>
<!-- A2Component -->
<g id="node2" class="node">
<title>A2Component</title>
<polygon fill="#ffffb3" stroke="black" points="122.44,-84.8 23.56,-84.8 23.56,-48.8 122.44,-48.8 122.44,-84.8"/>
<text text-anchor="middle" x="73" y="-62.6" font-family="Times,serif" font-size="14.00">A2Component</text>
</g>
<!-- A2Component&#45;&gt;AModule -->
<g id="edge2" class="edge">
<title>A2Component&#45;&gt;AModule</title>
<path fill="none" stroke="black" d="M73,-85.02C73,-105.17 73,-134.8 73,-134.8 73,-134.8 144.2,-134.8 144.2,-134.8"/>
<polygon fill="black" stroke="black" points="144.2,-138.3 154.2,-134.8 144.2,-131.3 144.2,-138.3"/>
</g>
<!-- A1Component  -->
<g id="node5" class="node">
<title>A1Component </title>
<polygon fill="#fb8072" stroke="black" points="239.94,-220.8 138.06,-220.8 138.06,-184.8 239.94,-184.8 239.94,-220.8"/>
<text text-anchor="middle" x="189" y="-198.6" font-family="Times,serif" font-size="14.00">A1Component </text>
</g>
<!-- AModule&#45;&gt;A1Component  -->
<g id="edge4" class="edge">
<title>AModule&#45;&gt;A1Component </title>
<path fill="none" stroke="black" stroke-dasharray="5,2" d="M189,-153.02C189,-153.02 189,-174.53 189,-174.53"/>
<polygon fill="black" stroke="black" points="185.5,-174.53 189,-184.53 192.5,-174.53 185.5,-174.53"/>
</g>
<!-- SharedModule -->
<g id="node4" class="node">
<title>SharedModule</title>
<polygon fill="#8dd3c7" stroke="black" points="360.42,-84.8 357.42,-88.8 336.42,-88.8 333.42,-84.8 261.58,-84.8 261.58,-48.8 360.42,-48.8 360.42,-84.8"/>
<text text-anchor="middle" x="311" y="-62.6" font-family="Times,serif" font-size="14.00">SharedModule</text>
</g>
<!-- SharedModule&#45;&gt;AModule -->
<g id="edge3" class="edge">
<title>SharedModule&#45;&gt;AModule</title>
<path fill="none" stroke="black" d="M294.6,-85.09C294.6,-107.01 294.6,-140.8 294.6,-140.8 294.6,-140.8 233.87,-140.8 233.87,-140.8"/>
<polygon fill="black" stroke="black" points="233.87,-137.3 223.87,-140.8 233.87,-144.3 233.87,-137.3"/>
</g>
<!-- BModule -->
<g id="node17" class="node">
<title>BModule</title>
<polygon fill="#8dd3c7" stroke="black" points="1071.39,-152.8 1068.39,-156.8 1047.39,-156.8 1044.39,-152.8 1002.61,-152.8 1002.61,-116.8 1071.39,-116.8 1071.39,-152.8"/>
<text text-anchor="middle" x="1037" y="-130.6" font-family="Times,serif" font-size="14.00">BModule</text>
</g>
<!-- SharedModule&#45;&gt;BModule -->
<g id="edge15" class="edge">
<title>SharedModule&#45;&gt;BModule</title>
<path fill="none" stroke="black" d="M360.31,-56.8C512.88,-56.8 967.05,-56.8 967.05,-56.8 967.05,-56.8 967.05,-134.8 967.05,-134.8 967.05,-134.8 992.44,-134.8 992.44,-134.8"/>
<polygon fill="black" stroke="black" points="992.44,-138.3 1002.44,-134.8 992.44,-131.3 992.44,-138.3"/>
</g>
<!-- FooterComponent  -->
<g id="node21" class="node">
<title>FooterComponent </title>
<polygon fill="#fb8072" stroke="black" points="664.88,-152.8 543.12,-152.8 543.12,-116.8 664.88,-116.8 664.88,-152.8"/>
<text text-anchor="middle" x="604" y="-130.6" font-family="Times,serif" font-size="14.00">FooterComponent </text>
</g>
<!-- SharedModule&#45;&gt;FooterComponent  -->
<g id="edge19" class="edge">
<title>SharedModule&#45;&gt;FooterComponent </title>
<path fill="none" stroke="black" stroke-dasharray="5,2" d="M360.37,-77.8C443.87,-77.8 604,-77.8 604,-77.8 604,-77.8 604,-106.76 604,-106.76"/>
<polygon fill="black" stroke="black" points="600.5,-106.76 604,-116.76 607.5,-106.76 600.5,-106.76"/>
</g>
<!-- HeaderComponent  -->
<g id="node22" class="node">
<title>HeaderComponent </title>
<polygon fill="#fb8072" stroke="black" points="525.74,-152.8 400.26,-152.8 400.26,-116.8 525.74,-116.8 525.74,-152.8"/>
<text text-anchor="middle" x="463" y="-130.6" font-family="Times,serif" font-size="14.00">HeaderComponent </text>
</g>
<!-- SharedModule&#45;&gt;HeaderComponent  -->
<g id="edge20" class="edge">
<title>SharedModule&#45;&gt;HeaderComponent </title>
<path fill="none" stroke="black" stroke-dasharray="5,2" d="M327.4,-85.07C327.4,-103.36 327.4,-128.8 327.4,-128.8 327.4,-128.8 390.36,-128.8 390.36,-128.8"/>
<polygon fill="black" stroke="black" points="390.36,-132.3 400.36,-128.8 390.36,-125.3 390.36,-132.3"/>
</g>
<!-- AppComponent -->
<g id="node6" class="node">
<title>AppComponent</title>
<polygon fill="#ffffb3" stroke="black" points="2233.94,-84.8 2128.06,-84.8 2128.06,-48.8 2233.94,-48.8 2233.94,-84.8"/>
<text text-anchor="middle" x="2181" y="-62.6" font-family="Times,serif" font-size="14.00">AppComponent</text>
</g>
<!-- AppModule -->
<g id="node12" class="node">
<title>AppModule</title>
<polygon fill="#8dd3c7" stroke="black" points="1798.66,-152.8 1795.66,-156.8 1774.66,-156.8 1771.66,-152.8 1715.34,-152.8 1715.34,-116.8 1798.66,-116.8 1798.66,-152.8"/>
<text text-anchor="middle" x="1757" y="-130.6" font-family="Times,serif" font-size="14.00">AppModule</text>
</g>
<!-- AppComponent&#45;&gt;AppModule -->
<g id="edge5" class="edge">
<title>AppComponent&#45;&gt;AppModule</title>
<path fill="none" stroke="black" d="M2181,-85.05C2181,-107.82 2181,-143.8 2181,-143.8 2181,-143.8 1808.82,-143.8 1808.82,-143.8"/>
<polygon fill="black" stroke="black" points="1808.82,-140.3 1798.82,-143.8 1808.82,-147.3 1808.82,-140.3"/>
</g>
<!-- BreweryComponent -->
<g id="node7" class="node">
<title>BreweryComponent</title>
<polygon fill="#ffffb3" stroke="black" points="2110.53,-84.8 1981.47,-84.8 1981.47,-48.8 2110.53,-48.8 2110.53,-84.8"/>
<text text-anchor="middle" x="2046" y="-62.6" font-family="Times,serif" font-size="14.00">BreweryComponent</text>
</g>
<!-- BreweryComponent&#45;&gt;AppModule -->
<g id="edge6" class="edge">
<title>BreweryComponent&#45;&gt;AppModule</title>
<path fill="none" stroke="black" d="M2046,-85.02C2046,-105.17 2046,-134.8 2046,-134.8 2046,-134.8 1808.71,-134.8 1808.71,-134.8"/>
<polygon fill="black" stroke="black" points="1808.71,-131.3 1798.71,-134.8 1808.71,-138.3 1808.71,-131.3"/>
</g>
<!-- ChildrenComponent -->
<g id="node8" class="node">
<title>ChildrenComponent</title>
<polygon fill="#ffffb3" stroke="black" points="1963.33,-84.8 1832.67,-84.8 1832.67,-48.8 1963.33,-48.8 1963.33,-84.8"/>
<text text-anchor="middle" x="1898" y="-62.6" font-family="Times,serif" font-size="14.00">ChildrenComponent</text>
</g>
<!-- ChildrenComponent&#45;&gt;AppModule -->
<g id="edge7" class="edge">
<title>ChildrenComponent&#45;&gt;AppModule</title>
<path fill="none" stroke="black" d="M1898,-84.82C1898,-102.17 1898,-125.8 1898,-125.8 1898,-125.8 1808.92,-125.8 1808.92,-125.8"/>
<polygon fill="black" stroke="black" points="1808.92,-122.3 1798.92,-125.8 1808.92,-129.3 1808.92,-122.3"/>
</g>
<!-- HomeComponent -->
<g id="node9" class="node">
<title>HomeComponent</title>
<polygon fill="#ffffb3" stroke="black" points="1814.55,-84.8 1699.45,-84.8 1699.45,-48.8 1814.55,-48.8 1814.55,-84.8"/>
<text text-anchor="middle" x="1757" y="-62.6" font-family="Times,serif" font-size="14.00">HomeComponent</text>
</g>
<!-- HomeComponent&#45;&gt;AppModule -->
<g id="edge8" class="edge">
<title>HomeComponent&#45;&gt;AppModule</title>
<path fill="none" stroke="black" d="M1757,-85.02C1757,-85.02 1757,-106.53 1757,-106.53"/>
<polygon fill="black" stroke="black" points="1753.5,-106.53 1757,-116.53 1760.5,-106.53 1753.5,-106.53"/>
</g>
<!-- ParentComponent -->
<g id="node10" class="node">
<title>ParentComponent</title>
<polygon fill="#ffffb3" stroke="black" points="1681.6,-84.8 1564.4,-84.8 1564.4,-48.8 1681.6,-48.8 1681.6,-84.8"/>
<text text-anchor="middle" x="1623" y="-62.6" font-family="Times,serif" font-size="14.00">ParentComponent</text>
</g>
<!-- ParentComponent&#45;&gt;AppModule -->
<g id="edge9" class="edge">
<title>ParentComponent&#45;&gt;AppModule</title>
<path fill="none" stroke="black" d="M1623,-84.83C1623,-101.86 1623,-124.8 1623,-124.8 1623,-124.8 1705.34,-124.8 1705.34,-124.8"/>
<polygon fill="black" stroke="black" points="1705.34,-128.3 1715.34,-124.8 1705.34,-121.3 1705.34,-128.3"/>
</g>
<!-- UserComponent -->
<g id="node11" class="node">
<title>UserComponent</title>
<polygon fill="#ffffb3" stroke="black" points="1546.76,-84.8 1439.24,-84.8 1439.24,-48.8 1546.76,-48.8 1546.76,-84.8"/>
<text text-anchor="middle" x="1493" y="-62.6" font-family="Times,serif" font-size="14.00">UserComponent</text>
</g>
<!-- UserComponent&#45;&gt;AppModule -->
<g id="edge10" class="edge">
<title>UserComponent&#45;&gt;AppModule</title>
<path fill="none" stroke="black" d="M1493,-84.91C1493,-104.14 1493,-131.8 1493,-131.8 1493,-131.8 1705.17,-131.8 1705.17,-131.8"/>
<polygon fill="black" stroke="black" points="1705.17,-135.3 1715.17,-131.8 1705.17,-128.3 1705.17,-135.3"/>
</g>
<!-- AppComponent  -->
<g id="node13" class="node">
<title>AppComponent </title>
<polygon fill="#80b1d3" stroke="black" points="1811.44,-220.8 1702.56,-220.8 1702.56,-184.8 1811.44,-184.8 1811.44,-220.8"/>
<text text-anchor="middle" x="1757" y="-198.6" font-family="Times,serif" font-size="14.00">AppComponent </text>
</g>
<!-- AppModule&#45;&gt;AppComponent  -->
<g id="edge11" class="edge">
<title>AppModule&#45;&gt;AppComponent </title>
<path fill="none" stroke="black" stroke-dasharray="1,5" d="M1757,-153.02C1757,-153.02 1757,-174.53 1757,-174.53"/>
<polygon fill="black" stroke="black" points="1753.5,-174.53 1757,-184.53 1760.5,-174.53 1753.5,-174.53"/>
</g>
<!-- BreweryInterceptor -->
<g id="node14" class="node">
<title>BreweryInterceptor</title>
<ellipse fill="#fdb462" stroke="black" cx="1328" cy="-66.8" rx="86.77" ry="18"/>
<text text-anchor="middle" x="1328" y="-62.6" font-family="Times,serif" font-size="14.00">BreweryInterceptor</text>
</g>
<!-- BreweryInterceptor&#45;&gt;AppModule -->
<g id="edge12" class="edge">
<title>BreweryInterceptor&#45;&gt;AppModule</title>
<path fill="none" stroke="black" d="M1328,-84.97C1328,-106.3 1328,-138.8 1328,-138.8 1328,-138.8 1705.08,-138.8 1705.08,-138.8"/>
<polygon fill="black" stroke="black" points="1705.08,-142.3 1715.08,-138.8 1705.08,-135.3 1705.08,-142.3"/>
</g>
<!-- B1Component -->
<g id="node15" class="node">
<title>B1Component</title>
<polygon fill="#ffffb3" stroke="black" points="1200.67,-84.8 1103.33,-84.8 1103.33,-48.8 1200.67,-48.8 1200.67,-84.8"/>
<text text-anchor="middle" x="1152" y="-62.6" font-family="Times,serif" font-size="14.00">B1Component</text>
</g>
<!-- B1Component&#45;&gt;BModule -->
<g id="edge13" class="edge">
<title>B1Component&#45;&gt;BModule</title>
<path fill="none" stroke="black" d="M1152,-85.12C1152,-108.46 1152,-145.8 1152,-145.8 1152,-145.8 1081.5,-145.8 1081.5,-145.8"/>
<polygon fill="black" stroke="black" points="1081.5,-142.3 1071.5,-145.8 1081.5,-149.3 1081.5,-142.3"/>
</g>
<!-- B2Component -->
<g id="node16" class="node">
<title>B2Component</title>
<polygon fill="#ffffb3" stroke="black" points="1084.67,-84.8 987.33,-84.8 987.33,-48.8 1084.67,-48.8 1084.67,-84.8"/>
<text text-anchor="middle" x="1036" y="-62.6" font-family="Times,serif" font-size="14.00">B2Component</text>
</g>
<!-- B2Component&#45;&gt;BModule -->
<g id="edge14" class="edge">
<title>B2Component&#45;&gt;BModule</title>
<path fill="none" stroke="black" d="M1037,-85.02C1037,-85.02 1037,-106.53 1037,-106.53"/>
<polygon fill="black" stroke="black" points="1033.5,-106.53 1037,-116.53 1040.5,-106.53 1033.5,-106.53"/>
</g>
<!-- B1Component  -->
<g id="node18" class="node">
<title>B1Component </title>
<polygon fill="#fb8072" stroke="black" points="1088.67,-220.8 987.33,-220.8 987.33,-184.8 1088.67,-184.8 1088.67,-220.8"/>
<text text-anchor="middle" x="1038" y="-198.6" font-family="Times,serif" font-size="14.00">B1Component </text>
</g>
<!-- BModule&#45;&gt;B1Component  -->
<g id="edge16" class="edge">
<title>BModule&#45;&gt;B1Component </title>
<path fill="none" stroke="black" stroke-dasharray="5,2" d="M1037,-153.02C1037,-153.02 1037,-174.53 1037,-174.53"/>
<polygon fill="black" stroke="black" points="1033.5,-174.53 1037,-184.53 1040.5,-174.53 1033.5,-174.53"/>
</g>
<!-- FooterComponent -->
<g id="node19" class="node">
<title>FooterComponent</title>
<polygon fill="#ffffb3" stroke="black" points="946.88,-152.8 829.12,-152.8 829.12,-116.8 946.88,-116.8 946.88,-152.8"/>
<text text-anchor="middle" x="888" y="-130.6" font-family="Times,serif" font-size="14.00">FooterComponent</text>
</g>
<!-- FooterComponent&#45;&gt;SharedModule -->
<g id="edge17" class="edge">
<title>FooterComponent&#45;&gt;SharedModule</title>
<path fill="none" stroke="black" d="M888,-116.52C888,-95.48 888,-63.8 888,-63.8 888,-63.8 370.44,-63.8 370.44,-63.8"/>
<polygon fill="black" stroke="black" points="370.44,-60.3 360.44,-63.8 370.44,-67.3 370.44,-60.3"/>
</g>
<!-- HeaderComponent -->
<g id="node20" class="node">
<title>HeaderComponent</title>
<polygon fill="#ffffb3" stroke="black" points="810.74,-152.8 689.26,-152.8 689.26,-116.8 810.74,-116.8 810.74,-152.8"/>
<text text-anchor="middle" x="750" y="-130.6" font-family="Times,serif" font-size="14.00">HeaderComponent</text>
</g>
<!-- HeaderComponent&#45;&gt;SharedModule -->
<g id="edge18" class="edge">
<title>HeaderComponent&#45;&gt;SharedModule</title>
<path fill="none" stroke="black" d="M750,-116.63C750,-97.71 750,-70.8 750,-70.8 750,-70.8 370.51,-70.8 370.51,-70.8"/>
<polygon fill="black" stroke="black" points="370.51,-67.3 360.51,-70.8 370.51,-74.3 370.51,-67.3"/>
</g>
</g>
</svg>
